<mxfile>
    <diagram id="t8sfBqM9Hvnv5O_cRyFL" name="Page-1">
        <mxGraphModel dx="813" dy="477" grid="1" gridSize="10" guides="1" tooltips="1" connect="1" arrows="1" fold="1" page="1" pageScale="1" pageWidth="850" pageHeight="1100" math="0" shadow="0">
            <root>
                <mxCell id="0"/>
                <mxCell id="1" parent="0"/>
                <mxCell id="2" value="" style="shape=cube;whiteSpace=wrap;html=1;boundedLbl=1;backgroundOutline=1;darkOpacity=0.05;darkOpacity2=0.1;rounded=0;sketch=0;strokeColor=#FF6392;fillColor=#660000;fontColor=#5AA9E6;" parent="1" vertex="1">
                    <mxGeometry x="750" y="335" width="70" height="70" as="geometry"/>
                </mxCell>
                <mxCell id="3" value="" style="shape=cube;whiteSpace=wrap;html=1;boundedLbl=1;backgroundOutline=1;darkOpacity=0.05;darkOpacity2=0.1;rounded=0;sketch=0;strokeColor=#FF6392;fillColor=#660000;fontColor=#5AA9E6;" parent="1" vertex="1">
                    <mxGeometry x="680" y="335" width="70" height="70" as="geometry"/>
                </mxCell>
                <mxCell id="4" value="" style="shape=cube;whiteSpace=wrap;html=1;boundedLbl=1;backgroundOutline=1;darkOpacity=0.05;darkOpacity2=0.1;rounded=0;sketch=0;strokeColor=#FF6392;fillColor=#660000;fontColor=#5AA9E6;" parent="1" vertex="1">
                    <mxGeometry x="610" y="335" width="70" height="70" as="geometry"/>
                </mxCell>
                <mxCell id="5" value="" style="shape=cube;whiteSpace=wrap;html=1;boundedLbl=1;backgroundOutline=1;darkOpacity=0.05;darkOpacity2=0.1;rounded=0;sketch=0;strokeColor=#FF6392;fillColor=#660000;fontColor=#5AA9E6;" parent="1" vertex="1">
                    <mxGeometry x="750" y="265" width="70" height="70" as="geometry"/>
                </mxCell>
                <mxCell id="7" value="" style="shape=cube;whiteSpace=wrap;html=1;boundedLbl=1;backgroundOutline=1;darkOpacity=0.05;darkOpacity2=0.1;rounded=0;sketch=0;strokeColor=#FF6392;fillColor=#660000;fontColor=#5AA9E6;" parent="1" vertex="1">
                    <mxGeometry x="680" y="265" width="70" height="70" as="geometry"/>
                </mxCell>
                <mxCell id="8" value="" style="shape=cube;whiteSpace=wrap;html=1;boundedLbl=1;backgroundOutline=1;darkOpacity=0.05;darkOpacity2=0.1;rounded=0;sketch=0;strokeColor=#FF6392;fillColor=#660000;fontColor=#5AA9E6;" parent="1" vertex="1">
                    <mxGeometry x="610" y="265" width="70" height="70" as="geometry"/>
                </mxCell>
                <mxCell id="9" value="-1,-1,-1" style="text;html=1;strokeColor=none;fillColor=none;align=center;verticalAlign=middle;whiteSpace=wrap;rounded=0;sketch=0;fontColor=#5AA9E6;" parent="1" vertex="1">
                    <mxGeometry x="770" y="375" width="40" height="20" as="geometry"/>
                </mxCell>
                <mxCell id="10" value="0,-1,-1" style="text;html=1;strokeColor=none;fillColor=none;align=center;verticalAlign=middle;whiteSpace=wrap;rounded=0;sketch=0;fontColor=#5AA9E6;" parent="1" vertex="1">
                    <mxGeometry x="710" y="375" width="40" height="20" as="geometry"/>
                </mxCell>
                <mxCell id="11" value="1,-1,-1" style="text;html=1;strokeColor=none;fillColor=none;align=center;verticalAlign=middle;whiteSpace=wrap;rounded=0;sketch=0;fontColor=#5AA9E6;" parent="1" vertex="1">
                    <mxGeometry x="640" y="375" width="40" height="20" as="geometry"/>
                </mxCell>
                <mxCell id="12" value="-1,0,-1" style="text;html=1;strokeColor=none;fillColor=none;align=center;verticalAlign=middle;whiteSpace=wrap;rounded=0;sketch=0;fontColor=#5AA9E6;" parent="1" vertex="1">
                    <mxGeometry x="780" y="305" width="40" height="20" as="geometry"/>
                </mxCell>
                <mxCell id="13" value="0,0,-1" style="text;html=1;strokeColor=none;fillColor=none;align=center;verticalAlign=middle;whiteSpace=wrap;rounded=0;sketch=0;fontColor=#5AA9E6;" parent="1" vertex="1">
                    <mxGeometry x="710" y="305" width="40" height="20" as="geometry"/>
                </mxCell>
                <mxCell id="14" value="1,0,-1" style="text;html=1;strokeColor=none;fillColor=none;align=center;verticalAlign=middle;whiteSpace=wrap;rounded=0;sketch=0;fontColor=#5AA9E6;" parent="1" vertex="1">
                    <mxGeometry x="640" y="305" width="40" height="20" as="geometry"/>
                </mxCell>
                <mxCell id="15" value="" style="shape=cube;whiteSpace=wrap;html=1;boundedLbl=1;backgroundOutline=1;darkOpacity=0.05;darkOpacity2=0.1;rounded=0;sketch=0;strokeColor=#FF6392;fillColor=#660000;fontColor=#5AA9E6;" parent="1" vertex="1">
                    <mxGeometry x="750" y="195" width="70" height="70" as="geometry"/>
                </mxCell>
                <mxCell id="16" value="" style="shape=cube;whiteSpace=wrap;html=1;boundedLbl=1;backgroundOutline=1;darkOpacity=0.05;darkOpacity2=0.1;rounded=0;sketch=0;strokeColor=#FF6392;fillColor=#660000;fontColor=#5AA9E6;" parent="1" vertex="1">
                    <mxGeometry x="680" y="195" width="70" height="70" as="geometry"/>
                </mxCell>
                <mxCell id="17" value="1,1,-1" style="shape=cube;whiteSpace=wrap;html=1;boundedLbl=1;backgroundOutline=1;darkOpacity=0.05;darkOpacity2=0.1;rounded=0;sketch=0;strokeColor=#FF6392;fillColor=#660000;fontColor=#5AA9E6;" parent="1" vertex="1">
                    <mxGeometry x="610" y="195" width="70" height="70" as="geometry"/>
                </mxCell>
                <mxCell id="18" value="-1,1,-1" style="text;html=1;strokeColor=none;fillColor=none;align=center;verticalAlign=middle;whiteSpace=wrap;rounded=0;sketch=0;fontColor=#5AA9E6;" parent="1" vertex="1">
                    <mxGeometry x="780" y="235" width="40" height="20" as="geometry"/>
                </mxCell>
                <mxCell id="19" value="0,1,-1" style="text;html=1;strokeColor=none;fillColor=none;align=center;verticalAlign=middle;whiteSpace=wrap;rounded=0;sketch=0;fontColor=#5AA9E6;" parent="1" vertex="1">
                    <mxGeometry x="710" y="235" width="40" height="20" as="geometry"/>
                </mxCell>
                <mxCell id="54" value="" style="shape=cube;whiteSpace=wrap;html=1;boundedLbl=1;backgroundOutline=1;darkOpacity=0.05;darkOpacity2=0.1;rounded=0;sketch=0;strokeColor=#FF6392;fillColor=#3333FF;fontColor=#5AA9E6;" parent="1" vertex="1">
                    <mxGeometry x="510" y="335" width="70" height="70" as="geometry"/>
                </mxCell>
                <mxCell id="55" value="" style="shape=cube;whiteSpace=wrap;html=1;boundedLbl=1;backgroundOutline=1;darkOpacity=0.05;darkOpacity2=0.1;rounded=0;sketch=0;strokeColor=#FF6392;fillColor=#3333FF;fontColor=#5AA9E6;" parent="1" vertex="1">
                    <mxGeometry x="440" y="335" width="70" height="70" as="geometry"/>
                </mxCell>
                <mxCell id="56" value="" style="shape=cube;whiteSpace=wrap;html=1;boundedLbl=1;backgroundOutline=1;darkOpacity=0.05;darkOpacity2=0.1;rounded=0;sketch=0;strokeColor=#FF6392;fillColor=#3333FF;fontColor=#5AA9E6;" parent="1" vertex="1">
                    <mxGeometry x="370" y="335" width="70" height="70" as="geometry"/>
                </mxCell>
                <mxCell id="57" value="" style="shape=cube;whiteSpace=wrap;html=1;boundedLbl=1;backgroundOutline=1;darkOpacity=0.05;darkOpacity2=0.1;rounded=0;sketch=0;strokeColor=#FF6392;fillColor=#3333FF;fontColor=#5AA9E6;" parent="1" vertex="1">
                    <mxGeometry x="510" y="265" width="70" height="70" as="geometry"/>
                </mxCell>
                <mxCell id="58" value="" style="shape=cube;whiteSpace=wrap;html=1;boundedLbl=1;backgroundOutline=1;darkOpacity=0.05;darkOpacity2=0.1;rounded=0;sketch=0;strokeColor=#FF6392;fillColor=#3333FF;fontColor=#5AA9E6;" parent="1" vertex="1">
                    <mxGeometry x="440" y="265" width="70" height="70" as="geometry"/>
                </mxCell>
                <mxCell id="59" value="" style="shape=cube;whiteSpace=wrap;html=1;boundedLbl=1;backgroundOutline=1;darkOpacity=0.05;darkOpacity2=0.1;rounded=0;sketch=0;strokeColor=#FF6392;fillColor=#3333FF;fontColor=#5AA9E6;" parent="1" vertex="1">
                    <mxGeometry x="370" y="265" width="70" height="70" as="geometry"/>
                </mxCell>
                <mxCell id="60" value="-1,-1,0" style="text;html=1;strokeColor=none;fillColor=#3333FF;align=center;verticalAlign=middle;whiteSpace=wrap;rounded=0;sketch=0;fontColor=#5AA9E6;" parent="1" vertex="1">
                    <mxGeometry x="530" y="375" width="40" height="20" as="geometry"/>
                </mxCell>
                <mxCell id="61" value="0,-1,0" style="text;html=1;strokeColor=none;fillColor=#3333FF;align=center;verticalAlign=middle;whiteSpace=wrap;rounded=0;sketch=0;fontColor=#5AA9E6;" parent="1" vertex="1">
                    <mxGeometry x="470" y="375" width="40" height="20" as="geometry"/>
                </mxCell>
                <mxCell id="62" value="1,-1,0" style="text;html=1;strokeColor=none;fillColor=#3333FF;align=center;verticalAlign=middle;whiteSpace=wrap;rounded=0;sketch=0;fontColor=#5AA9E6;" parent="1" vertex="1">
                    <mxGeometry x="400" y="375" width="40" height="20" as="geometry"/>
                </mxCell>
                <mxCell id="63" value="-1,0,0" style="text;html=1;strokeColor=none;fillColor=#3333FF;align=center;verticalAlign=middle;whiteSpace=wrap;rounded=0;sketch=0;fontColor=#5AA9E6;" parent="1" vertex="1">
                    <mxGeometry x="540" y="305" width="40" height="20" as="geometry"/>
                </mxCell>
                <mxCell id="64" value="0,0,0" style="text;html=1;strokeColor=none;fillColor=#3333FF;align=center;verticalAlign=middle;whiteSpace=wrap;rounded=0;sketch=0;fontColor=#5AA9E6;" parent="1" vertex="1">
                    <mxGeometry x="470" y="305" width="40" height="20" as="geometry"/>
                </mxCell>
                <mxCell id="65" value="1,0,0" style="text;html=1;strokeColor=none;fillColor=#3333FF;align=center;verticalAlign=middle;whiteSpace=wrap;rounded=0;sketch=0;fontColor=#5AA9E6;" parent="1" vertex="1">
                    <mxGeometry x="400" y="305" width="40" height="20" as="geometry"/>
                </mxCell>
                <mxCell id="66" value="" style="shape=cube;whiteSpace=wrap;html=1;boundedLbl=1;backgroundOutline=1;darkOpacity=0.05;darkOpacity2=0.1;rounded=0;sketch=0;strokeColor=#FF6392;fillColor=#3333FF;fontColor=#5AA9E6;" parent="1" vertex="1">
                    <mxGeometry x="510" y="195" width="70" height="70" as="geometry"/>
                </mxCell>
                <mxCell id="67" value="" style="shape=cube;whiteSpace=wrap;html=1;boundedLbl=1;backgroundOutline=1;darkOpacity=0.05;darkOpacity2=0.1;rounded=0;sketch=0;strokeColor=#FF6392;fillColor=#3333FF;fontColor=#5AA9E6;" parent="1" vertex="1">
                    <mxGeometry x="440" y="195" width="70" height="70" as="geometry"/>
                </mxCell>
                <mxCell id="68" value="1,1,0" style="shape=cube;whiteSpace=wrap;html=1;boundedLbl=1;backgroundOutline=1;darkOpacity=0.05;darkOpacity2=0.1;rounded=0;sketch=0;strokeColor=#FF6392;fillColor=#3333FF;fontColor=#5AA9E6;" parent="1" vertex="1">
                    <mxGeometry x="370" y="195" width="70" height="70" as="geometry"/>
                </mxCell>
                <mxCell id="69" value="-1,1,0" style="text;html=1;strokeColor=none;fillColor=#3333FF;align=center;verticalAlign=middle;whiteSpace=wrap;rounded=0;sketch=0;fontColor=#5AA9E6;" parent="1" vertex="1">
                    <mxGeometry x="540" y="235" width="40" height="20" as="geometry"/>
                </mxCell>
                <mxCell id="70" value="0,1,0" style="text;html=1;strokeColor=none;fillColor=#3333FF;align=center;verticalAlign=middle;whiteSpace=wrap;rounded=0;sketch=0;fontColor=#5AA9E6;" parent="1" vertex="1">
                    <mxGeometry x="470" y="235" width="40" height="20" as="geometry"/>
                </mxCell>
                <mxCell id="71" value="" style="shape=cube;whiteSpace=wrap;html=1;boundedLbl=1;backgroundOutline=1;darkOpacity=0.05;darkOpacity2=0.1;rounded=0;sketch=0;strokeColor=#FF6392;fillColor=#00331A;fontColor=#5AA9E6;" parent="1" vertex="1">
                    <mxGeometry x="270" y="335" width="70" height="70" as="geometry"/>
                </mxCell>
                <mxCell id="72" value="" style="shape=cube;whiteSpace=wrap;html=1;boundedLbl=1;backgroundOutline=1;darkOpacity=0.05;darkOpacity2=0.1;rounded=0;sketch=0;strokeColor=#FF6392;fillColor=#00331A;fontColor=#5AA9E6;" parent="1" vertex="1">
                    <mxGeometry x="200" y="335" width="70" height="70" as="geometry"/>
                </mxCell>
                <mxCell id="73" value="" style="shape=cube;whiteSpace=wrap;html=1;boundedLbl=1;backgroundOutline=1;darkOpacity=0.05;darkOpacity2=0.1;rounded=0;sketch=0;strokeColor=#FF6392;fillColor=#00331A;fontColor=#5AA9E6;" parent="1" vertex="1">
                    <mxGeometry x="130" y="335" width="70" height="70" as="geometry"/>
                </mxCell>
                <mxCell id="74" value="" style="shape=cube;whiteSpace=wrap;html=1;boundedLbl=1;backgroundOutline=1;darkOpacity=0.05;darkOpacity2=0.1;rounded=0;sketch=0;strokeColor=#FF6392;fillColor=#00331A;fontColor=#5AA9E6;" parent="1" vertex="1">
                    <mxGeometry x="270" y="265" width="70" height="70" as="geometry"/>
                </mxCell>
                <mxCell id="75" value="" style="shape=cube;whiteSpace=wrap;html=1;boundedLbl=1;backgroundOutline=1;darkOpacity=0.05;darkOpacity2=0.1;rounded=0;sketch=0;strokeColor=#FF6392;fillColor=#00331A;fontColor=#5AA9E6;" parent="1" vertex="1">
                    <mxGeometry x="200" y="265" width="70" height="70" as="geometry"/>
                </mxCell>
                <mxCell id="76" value="" style="shape=cube;whiteSpace=wrap;html=1;boundedLbl=1;backgroundOutline=1;darkOpacity=0.05;darkOpacity2=0.1;rounded=0;sketch=0;strokeColor=#FF6392;fillColor=#00331A;fontColor=#5AA9E6;" parent="1" vertex="1">
                    <mxGeometry x="130" y="265" width="70" height="70" as="geometry"/>
                </mxCell>
                <mxCell id="77" value="-1,-1,1" style="text;html=1;strokeColor=none;fillColor=#00331A;align=center;verticalAlign=middle;whiteSpace=wrap;rounded=0;sketch=0;fontColor=#5AA9E6;" parent="1" vertex="1">
                    <mxGeometry x="290" y="375" width="40" height="20" as="geometry"/>
                </mxCell>
                <mxCell id="78" value="0,-1,0" style="text;html=1;strokeColor=none;fillColor=#00331A;align=center;verticalAlign=middle;whiteSpace=wrap;rounded=0;sketch=0;fontColor=#5AA9E6;" parent="1" vertex="1">
                    <mxGeometry x="230" y="375" width="40" height="20" as="geometry"/>
                </mxCell>
                <mxCell id="79" value="1,-1,0" style="text;html=1;strokeColor=none;fillColor=#00331A;align=center;verticalAlign=middle;whiteSpace=wrap;rounded=0;sketch=0;fontColor=#5AA9E6;" parent="1" vertex="1">
                    <mxGeometry x="160" y="375" width="40" height="20" as="geometry"/>
                </mxCell>
                <mxCell id="80" value="-1,0,1" style="text;html=1;strokeColor=none;fillColor=#00331A;align=center;verticalAlign=middle;whiteSpace=wrap;rounded=0;sketch=0;fontColor=#5AA9E6;" parent="1" vertex="1">
                    <mxGeometry x="300" y="305" width="40" height="20" as="geometry"/>
                </mxCell>
                <mxCell id="81" value="0,0,0" style="text;html=1;strokeColor=none;fillColor=#00331A;align=center;verticalAlign=middle;whiteSpace=wrap;rounded=0;sketch=0;fontColor=#5AA9E6;" parent="1" vertex="1">
                    <mxGeometry x="230" y="305" width="40" height="20" as="geometry"/>
                </mxCell>
                <mxCell id="82" value="1,0,0" style="text;html=1;strokeColor=none;fillColor=#00331A;align=center;verticalAlign=middle;whiteSpace=wrap;rounded=0;sketch=0;fontColor=#5AA9E6;" parent="1" vertex="1">
                    <mxGeometry x="160" y="305" width="40" height="20" as="geometry"/>
                </mxCell>
                <mxCell id="83" value="" style="shape=cube;whiteSpace=wrap;html=1;boundedLbl=1;backgroundOutline=1;darkOpacity=0.05;darkOpacity2=0.1;rounded=0;sketch=0;strokeColor=#FF6392;fillColor=#00331A;fontColor=#5AA9E6;" parent="1" vertex="1">
                    <mxGeometry x="270" y="195" width="70" height="70" as="geometry"/>
                </mxCell>
                <mxCell id="84" value="" style="shape=cube;whiteSpace=wrap;html=1;boundedLbl=1;backgroundOutline=1;darkOpacity=0.05;darkOpacity2=0.1;rounded=0;sketch=0;strokeColor=#FF6392;fillColor=#00331A;fontColor=#5AA9E6;" parent="1" vertex="1">
                    <mxGeometry x="200" y="195" width="70" height="70" as="geometry"/>
                </mxCell>
                <mxCell id="85" value="1,1,0" style="shape=cube;whiteSpace=wrap;html=1;boundedLbl=1;backgroundOutline=1;darkOpacity=0.05;darkOpacity2=0.1;rounded=0;sketch=0;strokeColor=#FF6392;fillColor=#00331A;fontColor=#5AA9E6;" parent="1" vertex="1">
                    <mxGeometry x="130" y="195" width="70" height="70" as="geometry"/>
                </mxCell>
                <mxCell id="86" value="-1,1,1" style="text;html=1;strokeColor=none;fillColor=#00331A;align=center;verticalAlign=middle;whiteSpace=wrap;rounded=0;sketch=0;fontColor=#5AA9E6;" parent="1" vertex="1">
                    <mxGeometry x="300" y="235" width="40" height="20" as="geometry"/>
                </mxCell>
                <mxCell id="87" value="0,1,0" style="text;html=1;strokeColor=none;fillColor=#00331A;align=center;verticalAlign=middle;whiteSpace=wrap;rounded=0;sketch=0;fontColor=#5AA9E6;" parent="1" vertex="1">
                    <mxGeometry x="230" y="235" width="40" height="20" as="geometry"/>
                </mxCell>
                <mxCell id="90" value="Primera capa" style="text;html=1;strokeColor=none;fillColor=none;align=center;verticalAlign=middle;whiteSpace=wrap;rounded=0;" vertex="1" parent="1">
                    <mxGeometry x="690" y="140" width="100" height="20" as="geometry"/>
                </mxCell>
                <mxCell id="91" value="segunda capa" style="text;html=1;strokeColor=none;fillColor=none;align=center;verticalAlign=middle;whiteSpace=wrap;rounded=0;" vertex="1" parent="1">
                    <mxGeometry x="430" y="150" width="100" height="20" as="geometry"/>
                </mxCell>
                <mxCell id="92" value="Tercera capa" style="text;html=1;strokeColor=none;fillColor=none;align=center;verticalAlign=middle;whiteSpace=wrap;rounded=0;" vertex="1" parent="1">
                    <mxGeometry x="200" y="150" width="100" height="20" as="geometry"/>
                </mxCell>
            </root>
        </mxGraphModel>
    </diagram>
</mxfile>